<svg width="34" height="34" viewBox="0 0 34 34" fill="none" xmlns="http://www.w3.org/2000/svg">
    <circle cx="17" cy="17" r="17" fill="#F52828" />
    <path
        d="M17.0001 10.2C17.5968 10.1999 18.1703 10.4419 18.5999 10.8751C19.0295 11.3083 19.2819 11.8988 19.3038 12.5226L19.3053 12.6117L21.7948 12.6113C21.9614 12.6114 22.1214 12.6788 22.2416 12.7994C22.3617 12.9201 22.4326 13.0846 22.4394 13.2587C22.4463 13.4327 22.3886 13.6028 22.2784 13.7334C22.1681 13.864 22.0139 13.9449 21.848 13.9593L21.7948 13.9617H21.3644L20.7644 22.2837C20.7346 22.696 20.557 23.0814 20.2671 23.3626C19.9773 23.6437 19.5966 23.8 19.2013 23.8H14.799C14.4037 23.8 14.023 23.6437 13.7331 23.3626C13.4433 23.0814 13.2657 22.696 13.2359 22.2837L12.6355 13.9617H12.2054C12.0434 13.9616 11.8873 13.8979 11.7681 13.783C11.649 13.6681 11.5755 13.5106 11.5622 13.3416L11.56 13.2865C11.56 13.117 11.621 12.9537 11.7308 12.829C11.8406 12.7044 11.9912 12.6275 12.1527 12.6136L12.2054 12.6113H14.695C14.695 11.3389 15.6373 10.2964 16.832 10.2061L16.9157 10.2015L17.0001 10.2ZM18.3832 15.2156C18.2691 15.2155 18.159 15.2597 18.0742 15.3397C17.9895 15.4197 17.9361 15.5297 17.9244 15.6484L17.9222 15.6978V20.3276L17.9244 20.377C17.9356 20.4962 17.9888 20.6067 18.0736 20.6871C18.1584 20.7675 18.2688 20.8121 18.3832 20.8121C18.4977 20.8121 18.6081 20.7675 18.6929 20.6871C18.7777 20.6067 18.8308 20.4962 18.842 20.377L18.8443 20.3276V15.6978L18.842 15.6484C18.8304 15.5297 18.777 15.4197 18.6922 15.3397C18.6075 15.2597 18.4974 15.2155 18.3832 15.2156ZM15.6171 15.2156C15.5029 15.2155 15.3928 15.2597 15.3081 15.3397C15.2233 15.4197 15.1699 15.5297 15.1582 15.6484L15.156 15.6978V20.3276L15.1582 20.377C15.1694 20.4962 15.2226 20.6067 15.3074 20.6871C15.3922 20.7675 15.5026 20.8121 15.6171 20.8121C15.7315 20.8121 15.8419 20.7675 15.9267 20.6871C16.0115 20.6067 16.0647 20.4962 16.0759 20.377L16.0781 20.3276V15.6978L16.0759 15.6484C16.0642 15.5297 16.0108 15.4197 15.926 15.3397C15.8413 15.2597 15.7312 15.2155 15.6171 15.2156ZM17.0621 11.5522L17.0001 11.5503C16.7419 11.5503 16.4933 11.6534 16.3052 11.8385C16.117 12.0236 16.0035 12.2768 15.9877 12.5465L15.9859 12.6117L18.0144 12.6113C18.0144 12.3411 17.9159 12.0811 17.7389 11.8843C17.562 11.6875 17.3199 11.5687 17.0621 11.5522Z"
        fill="white" />
</svg>
