<svg width="25" height="25" viewBox="0 0 25 25" fill="none" xmlns="http://www.w3.org/2000/svg">
    <circle cx="12.5" cy="12.5" r="12.5" fill="#4877EF" />
    <path
        d="M8.10328 14.1413L7.50699 16.7297C7.48642 16.8243 7.48712 16.9224 7.50905 17.0167C7.53098 17.111 7.57358 17.1992 7.63373 17.2748C7.69389 17.3504 7.77009 17.4116 7.85675 17.4538C7.94342 17.496 8.03837 17.5182 8.13466 17.5188C8.17953 17.5234 8.22474 17.5234 8.26961 17.5188L10.8588 16.9191L15.8299 11.938L13.0556 9.15393L8.10328 14.1413Z"
        fill="white" />
    <path
        d="M17.3929 9.44443L15.5413 7.58206C15.4195 7.46023 15.2548 7.39185 15.083 7.39185C14.9113 7.39185 14.7466 7.46023 14.6248 7.58206L13.5955 8.61741L16.3666 11.4047L17.396 10.3693C17.4563 10.3084 17.504 10.2362 17.5364 10.1567C17.5689 10.0772 17.5854 9.99212 17.5851 9.90621C17.5848 9.82031 17.5677 9.73531 17.5347 9.65607C17.5017 9.57683 17.4535 9.50491 17.3929 9.44443Z"
        fill="white" />
</svg>
