<svg width="16" height="18" viewBox="0 0 16 18" fill="none" xmlns="http://www.w3.org/2000/svg">
    <path opacity="0.4"
        d="M4.80908 7.40269L4.80908 1.9231C4.80908 1.22958 4.2157 0.666626 3.48472 0.666626C2.75471 0.666626 2.16035 1.22958 2.16035 1.9231L2.16035 7.40269C2.16035 8.0962 2.75471 8.65916 3.48472 8.65916C4.2157 8.65916 4.80908 8.0962 4.80908 7.40269Z"
        fill="white" />
    <path opacity="0.4"
        d="M12.4795 17.3333C13.2095 17.3333 13.8029 16.7703 13.8029 16.0777L13.8029 10.5981C13.8029 9.90463 13.2095 9.34167 12.4795 9.34167C11.7485 9.34167 11.1551 9.90463 11.1551 10.5981L11.1551 16.0777C11.1551 16.7703 11.7485 17.3333 12.4795 17.3333Z"
        fill="white" />
    <path
        d="M12.4794 6.39806C10.8106 6.39806 9.45789 5.11567 9.45789 3.53234C9.45789 1.94995 10.8106 0.666626 12.4794 0.666626C14.1473 0.666626 15.5 1.94995 15.5 3.53235C15.5 5.11567 14.1473 6.39806 12.4794 6.39806Z"
        fill="white" />
    <path
        d="M3.52057 17.3332C1.85267 17.3332 0.500002 16.0508 0.500002 14.4675C0.500002 12.8851 1.85267 11.6018 3.52057 11.6018C5.18945 11.6018 6.54211 12.8851 6.54211 14.4675C6.54211 16.0508 5.18945 17.3332 3.52057 17.3332Z"
        fill="white" />
</svg>
