<svg width="24" height="24" viewBox="0 0 24 24" fill="none" xmlns="http://www.w3.org/2000/svg">
    <ellipse cx="12.0047" cy="6.97123" rx="5.04642" ry="4.97123" stroke="#7F808A" stroke-width="1.5" stroke-linecap="round" stroke-linejoin="round" />
    <path fill-rule="evenodd" clip-rule="evenodd"
        d="M4.00002 18.8565C3.99866 18.507 4.078 18.1618 4.23204 17.847C4.71541 16.8946 6.07852 16.3899 7.20962 16.1613C8.02536 15.9898 8.85238 15.8753 9.68449 15.8185C11.2251 15.6852 12.7746 15.6852 14.3152 15.8185C15.1473 15.8759 15.9742 15.9905 16.7901 16.1613C17.9212 16.3899 19.2843 16.847 19.7677 17.847C20.0774 18.4887 20.0774 19.2337 19.7677 19.8755C19.2843 20.8754 17.9212 21.3326 16.7901 21.5516C15.9753 21.7302 15.148 21.848 14.3152 21.904C13.0613 22.0087 11.8015 22.0278 10.5449 21.9611C10.2549 21.9611 9.97452 21.9611 9.68449 21.904C8.85483 21.8487 8.03069 21.7309 7.21929 21.5516C6.07852 21.3326 4.72508 20.8754 4.23204 19.8755C4.07879 19.557 3.99953 19.2089 4.00002 18.8565Z"
        stroke="#7F808A" stroke-width="1.5" stroke-linecap="round" stroke-linejoin="round" />
</svg>
