<svg width="14" height="14" viewBox="0 0 14 14" fill="none" xmlns="http://www.w3.org/2000/svg">
<path d="M10.9882 10.3447C10.792 10.1537 10.4781 10.1579 10.2871 10.3541C10.0961 10.5503 10.1002 10.8642 10.2965 11.0552L10.9882 10.3447ZM12.4875 13.1885C12.6837 13.3796 12.9976 13.3754 13.1887 13.1792C13.3797 12.983 13.3755 12.6691 13.1793 12.478L12.4875 13.1885ZM11.8481 6.62218C11.8481 9.35016 9.57936 11.5819 6.75536 11.5819V12.5736C10.1044 12.5736 12.8398 9.92023 12.8398 6.62218H11.8481ZM6.75536 11.5819C3.93137 11.5819 1.66258 9.35016 1.66258 6.62218H0.670915C0.670915 9.92023 3.40635 12.5736 6.75536 12.5736V11.5819ZM1.66258 6.62218C1.66258 3.8942 3.93137 1.66246 6.75536 1.66246V0.670793C3.40635 0.670793 0.670915 3.32412 0.670915 6.62218H1.66258ZM6.75536 1.66246C9.57936 1.66246 11.8481 3.8942 11.8481 6.62218H12.8398C12.8398 3.32412 10.1044 0.670793 6.75536 0.670793V1.66246ZM10.2965 11.0552L12.4875 13.1885L13.1793 12.478L10.9882 10.3447L10.2965 11.0552Z" fill="#0A0B0D"/>
</svg>
