<svg width="24" height="24" viewBox="0 0 24 24" fill="none" xmlns="http://www.w3.org/2000/svg">
<path fill-rule="evenodd" clip-rule="evenodd" d="M21.7235 7.56191L21.0586 6.4381C20.4962 5.48718 19.2496 5.15914 18.272 5.70476V5.70476C17.8067 5.97178 17.2514 6.04753 16.7287 5.91532C16.2059 5.78311 15.7586 5.4538 15.4854 5C15.3097 4.71156 15.2152 4.38302 15.2116 4.04762V4.04762C15.2275 3.50988 15.0192 2.98879 14.6343 2.60305C14.2493 2.21731 13.7204 1.99978 13.1681 2H11.8286C11.2875 1.99999 10.7688 2.21001 10.3871 2.58357C10.0054 2.95713 9.79227 3.46345 9.79487 3.99048V3.99048C9.77883 5.07861 8.8686 5.95249 7.75136 5.95238C7.40702 5.9489 7.06973 5.85691 6.7736 5.68571V5.68571C5.79601 5.14009 4.54948 5.46813 3.98699 6.41905L3.27323 7.56191C2.71142 8.51163 3.04362 9.72505 4.01632 10.2762V10.2762C4.64859 10.6318 5.03809 11.2889 5.03809 12C5.03809 12.7111 4.64859 13.3682 4.01632 13.7238V13.7238C3.04486 14.2712 2.71229 15.4817 3.27323 16.4286V16.4286L3.94788 17.5619C4.21143 18.0251 4.65362 18.3669 5.1766 18.5117C5.69958 18.6565 6.26023 18.5923 6.73449 18.3333V18.3333C7.20071 18.0683 7.75629 17.9957 8.27774 18.1317C8.79918 18.2676 9.24328 18.6008 9.51132 19.0571C9.68708 19.3456 9.78152 19.6741 9.78509 20.0095V20.0095C9.78509 21.1088 10.7 22 11.8286 22H13.1681C14.2929 22 15.2063 21.1146 15.2116 20.019V20.019C15.209 19.4904 15.4235 18.9826 15.8073 18.6088C16.1911 18.2349 16.7124 18.026 17.2552 18.0286C17.5987 18.0375 17.9346 18.1291 18.2329 18.2952V18.2952C19.208 18.8425 20.4537 18.5189 21.0195 17.5714V17.5714L21.7235 16.4286C21.996 15.973 22.0708 15.4304 21.9313 14.9209C21.7919 14.4115 21.4496 13.9772 20.9804 13.7143V13.7143C20.5112 13.4514 20.169 13.0171 20.0295 12.5076C19.89 11.9982 19.9648 11.4556 20.2373 11C20.4145 10.6987 20.671 10.4488 20.9804 10.2762V10.2762C21.9473 9.72535 22.2787 8.51902 21.7235 7.57143V7.57143V7.56191Z" stroke="#7F808A" stroke-width="1.5" stroke-linecap="round" stroke-linejoin="round"/>
<ellipse cx="12.5032" cy="12" rx="2.81594" ry="2.74286" stroke="#7F808A" stroke-width="1.5" stroke-linecap="round" stroke-linejoin="round"/>
</svg>
