<svg width="14" height="14" viewBox="0 0 14 14" fill="none" xmlns="http://www.w3.org/2000/svg">
<path d="M13.8638 5.62905H13.3V5.6H7V8.4H10.9561C10.3789 10.0299 8.82805 11.2 7 11.2C4.68055 11.2 2.8 9.31945 2.8 7C2.8 4.68055 4.68055 2.8 7 2.8C8.07065 2.8 9.0447 3.2039 9.78635 3.86365L11.7663 1.8837C10.5161 0.71855 8.8438 0 7 0C3.13425 0 0 3.13425 0 7C0 10.8657 3.13425 14 7 14C10.8657 14 14 10.8657 14 7C14 6.53065 13.9517 6.0725 13.8638 5.62905Z" fill="#FFC107"/>
<path d="M0.8071 3.74185L3.10695 5.4285C3.72925 3.8878 5.23635 2.8 7 2.8C8.07065 2.8 9.0447 3.2039 9.78635 3.86365L11.7663 1.8837C10.5161 0.71855 8.8438 0 7 0C4.3113 0 1.9796 1.51795 0.8071 3.74185Z" fill="#FF3D00"/>
<path d="M7 14C8.8081 14 10.451 13.308 11.6931 12.1828L9.52665 10.3495C8.80024 10.9019 7.91261 11.2007 7 11.2C5.1793 11.2 3.63335 10.0391 3.05095 8.4189L0.76825 10.1776C1.92675 12.4446 4.27945 14 7 14Z" fill="#4CAF50"/>
<path d="M13.8638 5.62905H13.3V5.6H7V8.4H10.9561C10.68 9.17574 10.1827 9.85361 9.5256 10.3498L9.52665 10.3495L11.6931 12.1828C11.5398 12.3221 14 10.5 14 7C14 6.53065 13.9517 6.0725 13.8638 5.62905Z" fill="#1976D2"/>
</svg>
